<svg viewBox="0 0 118 180" fill="none" xmlns="http://www.w3.org/2000/svg">
<path d="M41.4388 50.0574C38.9701 49.6043 35.7722 48.9897 33.9753 47.2241C33.6628 46.0262 37.3399 44.7918 38.2722 44.6564C39.3243 44.5053 40.9232 45.0626 41.4441 44.0834C39.6211 43.0262 33.3711 44.8959 33.168 47.0366C33.0013 48.8282 38.9076 50.5574 40.3295 50.8855C47.9232 52.6512 56.8763 51.8803 64.5899 50.9845C66.6941 50.7397 69.1368 49.9845 71.1576 49.9116L73.7878 48.5209C63.3972 50.573 51.9545 51.9845 41.4336 50.0574H41.4388Z" fill="#424C14"/>
<path d="M36.6211 116.818C46.4753 118.01 56.8972 118.964 66.7149 117.412C65.6941 118.365 65.017 121.448 65.5118 122.62C66.0534 123.912 72.1107 125.208 72.4232 122.162C72.4649 121.719 72.0899 121.432 72.0951 121.167C72.1107 120.557 72.7826 120.297 72.4336 119.052C72.2513 118.401 71.7409 118.484 71.4336 118.12C71.1628 117.807 71.1888 117.229 70.8763 117C69.8034 116.193 68.0118 117.047 66.8503 117.125C63.767 117.339 60.642 117.406 57.5482 117.406L57.8243 116.297L56.892 116.833C55.4284 115.729 56.3347 115.281 57.543 116.297C57.517 115.188 58.8763 115.62 59.2149 114.912L55.7826 115.146L55.3659 114.729L55.3295 113.521L62.8243 112.958C62.7722 114.38 64.7045 115.281 65.8868 115.078C66.418 114.984 67.2774 114.318 67.6472 114.396C67.9128 114.448 68.1888 114.958 68.5951 115.109C70.0118 115.651 71.8451 115.276 72.8243 114.078C71.1993 114.323 67.6003 115.219 68.6941 112.438L81.5899 110.255L82.543 111.021L81.9909 111.844C82.5899 111.885 82.9128 111.391 83.5274 111.307C84.7513 111.141 86.3399 111.604 87.4128 110.75C87.7149 110.505 87.793 109.979 88.1107 109.781C88.4805 109.552 88.9961 109.682 89.3503 109.354C89.7357 109.005 89.8868 107.568 90.0795 107.448C90.3816 107.25 91.4545 107.234 91.1472 107.958L90.043 108.51L91.5743 108.24L90.5534 77.0261L90.1888 76.6459L88.9284 76.849L89.5013 75.8751C89.517 74.3959 85.2826 74.8907 84.7461 74.5053C84.267 74.1667 84.4909 71.6459 82.5534 72.1147C82.4753 70.8803 82.6107 69.6199 82.543 68.3803C82.5118 67.7865 82.043 66.9532 82.0691 66.7032C82.1107 66.3126 84.0274 65.6407 83.9493 63.6615C83.8816 61.9584 82.4805 61.9167 82.1107 61.297C82.0013 61.1199 82.3034 59.2865 81.4441 58.6459C81.418 57.7084 81.2513 51.3126 81.0118 51.0105C80.7149 50.6459 80.4597 50.7188 80.043 50.7397L80.8763 58.5157L77.5482 58.7917C78.0274 55.8542 76.6055 54.6615 74.3399 56.8386C73.4909 57.6511 73.4232 58.6772 72.5482 59.349C72.1003 57.7501 70.1836 57.2917 69.4909 55.8699L70.0534 55.599C70.0743 54.9792 68.7566 54.6251 69.4961 53.5157C69.0691 53.5834 67.9545 53.4897 68.1055 52.823C68.4701 51.8959 69.4024 52.4324 69.4701 52.3803C69.5222 52.3438 69.6368 51.6095 69.9128 51.297C70.517 50.6251 71.668 50.6459 72.5066 50.7761L72.9597 51.8386C73.6836 51.2709 74.8034 51.1824 75.043 52.2605L73.7722 53.224L74.1732 54.4428C74.0378 55.2345 72.5586 55.3334 71.9024 55.1251C71.2045 54.9063 71.418 54.1615 70.8816 54.0678C70.4701 56.1042 73.7357 56.1876 74.5118 55.0626C74.8451 54.5678 74.6888 54.0001 74.9128 53.5261C75.2618 52.797 76.7253 52.3178 75.7253 51.0313C75.1993 50.3542 72.1055 49.8699 71.1576 49.9011C70.4284 50.297 68.4649 51.5886 67.9649 52.1355C67.418 52.7345 67.4336 53.5001 66.1628 53.9324L67.9805 54.323L68.3868 55.0417L67.8243 56.0105L69.2045 56.7084C67.7513 57.1772 68.2774 59.0261 66.9909 58.7917L67.8399 59.2188L67.5899 61.5313C69.3451 63.0209 70.6524 65.4324 73.3763 65.4532C73.517 64.7188 73.2201 64.9688 72.8191 64.7761C70.7618 63.7761 68.8659 62.9845 68.6732 60.2761C68.5638 58.7292 69.5482 56.4063 71.1576 58.099C71.6732 58.3595 72.4649 60.9688 72.9545 60.7345C73.3816 60.5261 73.5691 58.4949 74.0847 57.6928C74.5691 56.9428 76.1836 55.4376 76.8451 56.573C77.5378 58.1147 75.4441 59.7553 75.8763 60.1824C77.0378 60.0417 77.5066 59.1824 78.8295 59.0886C79.8191 59.0209 81.3086 59.2292 81.2982 60.4636C81.0066 61.1199 79.0691 61.9011 79.2097 62.5365C79.4909 63.8438 81.1159 61.2136 82.3868 62.6928C84.5066 65.1511 79.8243 66.2084 77.9545 66.0105C76.9388 65.9063 75.293 64.7501 76.0482 66.3126C77.9701 67.4792 79.8607 67.1824 81.9857 66.849C81.2149 68.4428 82.3138 70.1355 81.9545 71.8178C80.5899 72.1563 78.6784 72.6563 77.8191 73.7865C79.0951 73.7657 80.3399 72.8595 81.4284 72.547C83.9857 71.8126 84.517 75.672 81.5847 74.073L80.418 75.698L78.5118 74.3542C77.8347 74.8074 78.1107 75.4115 78.3763 76.0105C77.3086 76.0834 76.8555 76.5522 76.1524 77.1251C76.4649 76.9949 78.2201 76.4532 78.3711 76.573L77.8607 77.7761C79.0326 79.7813 79.7097 76.8907 79.9336 76.8282C81.8138 76.7397 82.9076 76.7345 81.8555 78.8074C81.0274 80.4376 79.6941 80.3907 78.1107 80.7553L78.0899 81.5678L80.4753 81.8282L80.3295 83.1147L76.7045 84.8959C77.9701 85.0157 80.3451 84.6251 81.1524 83.5834C82.3555 82.0261 80.7566 81.3803 80.8711 80.8907C80.9597 80.5053 83.8763 79.0209 83.0534 76.7397C82.8763 76.2501 82.2045 76.4845 82.2566 76.0157C83.1993 76.3022 83.8086 75.4063 84.4024 75.2449C85.4076 74.9792 87.3607 75.2605 88.3659 75.6042C88.6524 75.7032 89.1107 75.6772 88.918 76.1459C88.668 76.7501 84.1524 78.6928 83.1159 79.5053C82.8503 79.7136 81.3868 80.9636 81.7045 81.2865C83.5951 79.297 84.8295 79.922 87.0534 79.5574C88.0691 79.3855 89.0899 78.6303 90.0326 78.2345C90.1055 87.6876 89.767 97.1928 90.8711 106.563C88.7357 106.104 89.2357 108.688 88.6524 109.208C88.3503 109.474 86.9857 109.708 86.5691 109.63L86.0118 108.787C85.3763 110.5 84.2149 110.537 82.5378 110.453C82.3868 109.656 82.7513 110.005 83.142 109.823C83.6628 109.583 85.4597 109.089 85.5691 108.62C85.767 107.557 83.7878 107.005 83.668 106.818C83.6316 106.761 84.0274 106.141 83.892 105.656C83.7878 105.271 83.1732 105.011 83.1159 104.724C83.017 104.177 84.8191 103.271 83.2357 101.839C82.8555 101.49 82.0638 101.344 81.8555 101.021C81.7201 100.813 82.0482 100.224 81.6263 99.7032C80.8086 98.6928 78.5847 98.0365 77.3138 97.9063L76.6993 96.1563C77.6107 95.349 78.2201 96.2188 78.8086 96.297C79.9076 96.4428 81.2201 94.3178 80.8659 93.2345C79.918 93.172 80.4545 94.3386 79.7722 95.0522C78.6055 96.2553 78.5326 94.6876 78.2253 94.6147C77.9388 94.5522 77.0586 95.5053 76.4284 95.1772L76.0013 93.5105C74.8243 93.9792 73.9336 94.849 72.5378 94.6199C72.4909 93.8803 73.1941 93.1928 72.3972 92.6824C69.4336 95.9688 65.6107 90.4949 71.1472 91.8438C71.267 91.1199 71.0378 91.349 70.5482 91.2084C68.9128 90.7501 67.6628 90.797 67.8295 92.7917C67.9857 94.5782 70.3816 94.4532 71.6941 94.073C71.793 96.1667 73.7878 95.4532 75.1472 94.8907L75.5899 95.5938C74.4128 95.724 73.3711 96.1303 72.4441 96.8907C72.1784 97.1095 71.2722 97.6772 72.1263 97.948C72.5899 98.099 72.6732 97.1511 73.4857 96.823C75.3868 96.0522 77.6316 96.7605 76.7045 99.0626C78.3191 98.3282 80.0691 98.9792 81.293 100.172C82.017 101.505 78.8243 101.573 79.2045 103.229C81.0795 100.917 84.6524 101.63 82.2722 104.724C82.7097 105.349 83.543 105.656 83.3659 106.563H82.5326C82.1055 108.052 84.6941 107.083 84.7566 108.781C78.4336 110.531 71.8451 111.427 65.3191 111.839L67.2201 110.552C68.8191 108.406 66.7982 107.615 67.2618 105.729C66.4284 105.448 66.5274 106.162 66.2201 106.266C65.7722 106.422 65.0066 106.354 64.4857 106.563C64.9493 105.688 63.8451 104.136 63.9545 103.703C63.9805 103.609 65.043 102.261 65.1159 102.203C65.6628 101.771 67.0743 101.859 67.1211 101.005C64.5743 100.547 61.8972 103.453 60.3347 103.943C59.1524 104.313 57.7878 103.594 56.9753 105.021C56.319 106.172 57.0899 106.708 56.9336 107.474C56.7826 108.193 55.319 109.109 56.7201 110.302C57.4649 110.943 58.2618 110.563 59.0118 110.787C59.5899 110.964 59.9232 111.703 61.0847 111.771C62.0795 111.833 64.3763 110.589 64.4805 112.115C61.3711 111.865 58.2618 112.412 55.168 112.406C54.5118 112.406 53.9076 112.115 53.2513 112.104C44.2409 111.984 34.8763 111.776 26.5638 107.953C27.0118 99.7449 25.9024 91.5886 25.8816 83.3699C25.8816 82.849 25.5847 82.2813 25.5847 81.7032C25.5847 80.3074 26.0482 78.5417 26.168 77.1199C28.3503 79.0522 31.6732 79.9428 34.4909 80.5938C38.392 81.4949 45.4909 82.8699 49.3659 82.9636C49.7045 82.9688 51.1628 82.7397 51.1576 82.5365C44.892 81.2813 38.3711 80.7501 32.2149 78.9845C31.2878 78.7188 27.2566 77.6303 27.2566 76.7032C27.2566 75.6042 31.7982 74.448 32.7566 75.2449C33.0482 75.4949 33.0013 76.2865 33.6784 76.6928C34.6732 77.2917 35.6993 76.6355 36.5222 76.8282C36.8034 76.8959 36.8451 77.474 37.1159 77.6824C38.3659 78.6563 40.3659 77.9428 40.6159 78.0886C40.8503 78.224 41.1159 79.0157 41.5691 79.349C43.5534 80.8178 44.8972 79.0365 45.4076 79.1147C45.7566 79.1667 46.3555 79.7761 47.1576 79.8751C48.1784 80.0053 48.8659 79.599 49.6107 79.6355C50.2513 79.6667 50.7878 80.172 51.543 80.1563C52.4232 80.1407 54.1732 79.1511 54.3555 79.1563C54.5378 79.1563 55.1159 79.7813 55.7566 79.8855C56.7409 80.0417 57.8659 79.4949 58.4545 79.6563C58.8086 79.7553 59.0222 80.2761 59.4076 80.3959C59.6941 80.4897 63.2618 80.4324 63.6628 80.323C64.5118 80.1042 65.7149 78.9167 66.3138 78.2449C66.6368 77.8803 66.6524 77.2709 66.892 77.099C67.8138 76.4272 69.1211 77.0886 70.043 77.4011C66.3659 80.073 70.7566 82.948 73.5013 83.8022C73.9493 83.9428 75.8138 84.5938 75.6003 83.5105C73.9128 83.5834 68.7722 80.922 69.2461 78.9845C69.9545 77.5574 71.8607 78.4428 72.8034 79.2188C73.2201 79.5574 73.5899 80.5522 74.0638 80.4532C74.6472 79.8282 74.1993 79.1876 74.8034 78.4115C74.9805 78.1876 75.8972 77.3282 76.1524 77.1199C75.0274 77.5834 74.2253 78.047 73.9232 79.3438L71.4336 77.8126C72.6107 77.1563 76.3347 76.5313 76.9545 75.5678C77.7878 74.2709 76.8503 73.9376 76.7566 73.3178C76.6784 72.8334 77.7982 72.4845 76.8243 71.3074C76.1576 70.4949 75.1524 70.5678 74.3816 70.1407C73.1211 69.448 72.5743 67.7813 70.6211 69.5053C69.7878 70.2397 69.9805 71.1095 69.7045 71.5001C69.5691 71.6928 68.8711 71.724 68.5222 72.1251C67.9441 72.7813 68.1576 74.0886 67.8191 74.8959C66.9597 74.0313 66.2618 73.9324 65.0482 74.0678C65.3711 74.6303 66.7461 74.5782 67.1368 75.1667C67.7045 76.0313 65.6107 76.2449 65.0482 76.2813L65.3295 75.6199L64.4961 74.6199L64.4753 76.8282C54.0326 78.1824 43.7513 75.5886 33.6784 73.2188L34.5118 63.1042L33.9441 55.0365L32.8347 48.2292C32.8659 49.6615 32.7826 51.1042 32.8347 52.5313C33.0638 58.5522 34.0274 64.5365 33.6784 70.599C33.6315 71.3282 33.0274 73.2709 33.1263 73.6147C33.267 74.0834 34.0066 73.8647 33.9441 74.3334C32.8763 75.1355 32.1472 74.4949 31.0378 74.6147C26.3191 75.1199 25.168 76.7397 24.7826 81.4272C24.3086 87.2917 25.4128 94.1095 25.6263 100.021C25.7253 102.833 25.517 105.682 25.5951 108.479C24.6316 108.568 22.9024 109.25 23.2253 110.453C24.0638 112.698 25.6836 111.245 26.3191 111.339C26.5899 111.38 26.8191 112.307 27.5378 112.552C28.267 112.797 30.0899 112.531 30.293 112.714C30.5118 112.912 30.3607 114.109 31.5951 114.333C32.7097 114.537 33.517 113.833 33.8086 113.859C34.017 113.875 34.3555 114.406 34.7045 114.557C35.9076 115.073 36.8711 114.719 37.9753 114.099C38.2305 114.125 38.7305 116.01 40.9493 115.677C41.4284 115.604 41.9545 115.167 42.4232 115.193C42.9284 115.214 43.3138 115.833 43.8607 115.958C44.7045 116.146 45.1836 115.745 45.7618 115.76C46.7045 115.792 47.3816 116.62 49.0222 116.224C49.5795 116.094 50.0274 115.448 50.4649 115.453C50.8086 115.458 51.293 115.995 52.1263 116.037C53.168 116.089 53.9545 115.401 54.5691 115.495C55.2774 115.599 56.0899 116.912 56.7149 117.396C46.3138 116.615 35.5847 116.162 25.3295 114.208C23.7357 113.901 16.1263 112.333 15.4701 111.292C14.6628 110 16.8711 109.245 17.767 108.849L22.8399 107.396C21.6993 107.307 20.5951 107.552 19.5066 107.807C17.9805 108.167 13.3711 109.412 15.043 111.724C16.7045 114.016 33.1836 116.391 36.6211 116.802V116.818ZM70.6055 117.412L69.4961 118.38C70.1316 119.094 71.3034 118.51 71.6836 119.542C71.8503 120.203 71.2149 120.729 70.6055 120.74C70.6524 120.828 70.5899 121.063 70.7513 121.292C70.9753 121.609 71.6836 121.385 71.392 122.214C71.0066 123.005 70.168 123.328 69.3763 123.526L68.9336 122.406C68.2253 122.245 67.8607 123.021 67.1993 122.927C64.8868 122.615 66.0482 119.464 68.1055 120.182C67.7566 119.313 66.7774 119.604 66.1628 119.906C65.9753 117.823 68.9076 116.938 70.6055 117.412ZM87.2149 78.8855C86.6784 79.0261 86.1628 79.1459 85.6003 79.073L87.5951 78.1563L88.9284 77.9688C88.7513 78.4063 87.6316 78.7761 87.2149 78.8907V78.8855ZM66.7097 107.688L66.9701 108.891C66.793 109.255 66.5586 109.432 66.1628 109.354C66.1524 108.745 66.0066 107.901 66.7097 107.688ZM64.2149 102.412C64.2305 103.391 63.0118 103.568 62.2722 103.516C62.3086 102.974 64.0118 102.224 64.2149 102.412ZM61.1628 105.458H60.0534V104.912C60.569 104.839 61.0118 104.912 61.1628 105.458ZM64.0795 109.922C63.5847 110.573 60.8086 111 60.3816 110.385C60.2409 110.193 60.3816 109.703 60.3191 109.646C60.0534 109.391 57.668 110.432 57.1107 109.651C56.5274 108.828 57.4076 107.479 58.3816 107.406L57.6003 106.115C57.6055 105.162 58.3399 104.87 59.2097 104.906C59.0274 105.896 59.6524 106.672 60.6784 106.526C62.392 106.287 60.9388 103.599 63.6159 104.396C64.3972 105.734 63.5638 106.667 63.3816 107.964C64.3816 107.646 64.4961 106.531 65.8816 106.854C66.0118 106.974 65.2722 108.682 65.3243 109.208C65.4076 110.099 67.1316 110.375 64.9336 111L64.0743 109.922H64.0795ZM63.5222 112.964L67.5482 112.688C68.0586 115.042 62.9284 114.948 63.5222 112.964ZM68.6576 74.6355H69.7722C70.0378 73.7292 68.7566 73.3907 68.9388 72.5574C69.1472 71.5782 70.2826 72.7501 70.3191 72.6876C69.5691 71.1355 70.6628 69.3855 72.392 69.6251C73.8451 69.8334 72.7097 70.9897 73.517 71.573C74.2722 70.4011 76.9701 71.6615 76.392 72.6563L75.6003 73.3803C76.9753 74.2605 76.4024 75.4636 74.9857 75.849C74.1003 76.0886 73.7097 75.6667 73.2774 75.724C73.0326 75.7553 72.9909 76.4324 72.543 76.7084C71.043 77.6147 68.4076 76.5782 68.6576 74.6355ZM67.8295 75.4688H68.1003L68.3816 76.573H67.2722L67.8295 75.4688ZM56.0222 77.9688C59.3138 77.7709 62.6107 77.5001 65.8816 77.1355C66.3451 77.547 62.6524 80.224 62.4024 78.2501L61.8503 78.2345C60.8659 80.198 59.5899 78.3959 59.0326 78.2813C58.6524 78.2032 55.9336 79.6355 55.0534 78.3751C54.9232 77.6928 55.5951 77.9949 56.0222 77.9688ZM33.8034 74.6407L35.0586 75.1876C34.9649 74.8803 34.4857 74.5417 35.1941 74.6303C36.0013 74.7345 37.2253 75.3334 38.1576 75.5574C43.4909 76.8386 48.7253 77.7657 54.2149 78.1042C53.1836 79.4063 50.6159 79.5938 49.6368 78.2501C48.5482 80.6042 46.3034 78.5209 45.4701 78.5261C45.017 78.5313 44.6941 79.1615 43.5586 79.0678C41.7566 78.9167 41.4961 77.3074 40.9857 77.1615C40.3399 76.9792 36.8503 78.1772 37.5534 75.7501C37.3138 75.5417 33.6941 77.4376 33.3816 75.3282L33.8034 74.6407ZM51.2982 113.797C50.793 113.672 50.7357 114.406 50.4024 114.641C49.543 115.234 48.4493 115.24 47.4441 115.203C46.5795 112.906 46.3555 114.521 45.6732 114.901C43.8191 115.943 43.4441 113.912 42.9388 113.813C42.5951 113.75 41.4805 114.969 40.2253 114.896C38.642 114.807 39.642 113.589 38.4909 113.005L35.5326 113.76C34.9024 113.526 34.7461 112.958 34.7722 112.328C34.0378 111.552 33.8868 112.776 33.3295 113.042C31.6941 113.818 31.1993 112.844 31.4441 111.297C30.1628 111.198 28.4805 112.417 27.5222 111.167C27.1941 110.734 27.6836 110.24 27.1368 109.912C26.7461 109.839 24.6888 112.406 23.9388 110.323C24.4805 108.464 26.4805 110.406 26.8607 109.078C35.5013 112.906 45.4232 113.188 54.7722 113.526C54.3555 115.589 51.9701 115.974 51.2982 113.802V113.797Z" fill="#424C14"/>
<path d="M68.6992 120.229L68.6575 121.297H70.0429L69.2148 120.464C69.6784 120.365 70.22 120.75 70.6002 120.74C70.0169 119.714 70.1211 119.651 68.6992 120.229Z" fill="#424C14"/>
<path d="M116.913 151.5C116.147 148.104 111.152 144.896 107.814 144.63L112.512 147.292C119.475 152.234 113.965 158.182 109.335 162.12C90.6889 177.969 49.1211 177.833 26.4961 172.219C16.017 169.62 -9.63407 161.287 5.36593 147.292L12.2826 143.245C6.01177 145.12 -0.759068 149.49 0.069057 156.995C1.08989 166.271 20.9857 172.156 28.668 173.938C52.1524 179.391 94.2149 178.391 112.684 160.75C114.491 159.021 115.574 157.219 116.975 155.188C116.538 164.219 106.371 168.156 99.0743 170.745C87.2045 174.953 74.6993 176.849 62.1472 177.698L46.4441 177.688L52.1732 178.76C69.2253 179.922 87.3555 177.552 103.001 170.51C111.428 166.719 119.329 162.26 116.913 151.5Z" fill="#424C14"/>
<path d="M15.8138 157.073C18.8711 158.786 22.6003 160.052 25.9597 161.094C33.0378 163.281 40.4336 164.823 47.8295 165.464L46.4441 167.125C47.4441 167 47.9024 166.229 49.0482 166.302C49.8503 166.354 52.4753 167.411 51.7201 168.516L53.3868 168.245C52.3972 169.604 49.3034 169.484 48.668 167.818L48.2461 167.667C47.8659 167.667 45.7461 170.589 43.9388 169.495C43.4024 169.172 43.6784 168.12 42.9701 168.234C41.8347 169.141 39.767 170.76 39.0691 168.531C38.8659 167.896 39.418 165.714 38.8034 165.75C38.1941 165.786 37.9597 169.688 39.4128 170.13C41.1159 170.651 42.3399 169.318 42.6524 169.38C42.9232 169.427 43.1784 170 43.5795 170.13C45.2253 170.651 46.7565 169.505 47.9701 168.562C49.142 170.083 51.3555 170.344 52.9388 169.318C53.2826 169.094 53.3347 168.594 53.7253 168.427C55.0065 167.88 56.8815 168.557 58.2201 168.766L58.517 169.63C60.0482 167.99 56.9753 167.245 55.7409 167.141C53.4388 166.943 51.8451 168.135 50.0534 165.75C52.5065 165.786 54.9545 165.922 57.4128 166.021C58.7409 166.073 58.6159 166.125 59.918 166.042C60.9961 165.969 62.1107 166.229 63.1003 165.745C62.2461 168.052 60.9701 172.276 63.0951 174.229C65.5795 176.521 67.8399 172.26 64.4961 171.583C65.1576 172.25 65.7305 172.484 65.6263 173.62C64.6368 174.51 63.8607 173.896 63.3295 172.885C61.8399 170.062 64.3399 166.276 65.0482 163.521C63.6836 165.542 62.7149 166 60.1888 165.745C59.4545 165.672 56.3503 164.385 55.543 164C54.7461 163.625 54.1472 162.818 53.1888 162.469C51.2149 161.75 48.3816 162.062 48.9493 164.63C49.5118 164.479 49.5847 163.609 50.0534 163.38C51.3451 162.745 54.6315 163.531 54.2201 165.464C50.3138 164.974 46.392 164.656 42.5066 163.99C33.0534 162.37 22.7305 159.849 14.3607 155.182L14.5222 138.651C13.7566 130.99 14.0691 123.276 13.6732 115.609L13.1263 111.859L13.6784 156.021C14.392 155.693 15.0951 156.672 15.8138 157.073Z" fill="#424C14"/>
<path d="M41.7149 21.4375C42.3086 20.8958 41.8815 20.9271 41.418 21.1354C40.194 21.6979 38.9701 22.4583 37.5586 22.4114C36.7305 21.6927 41.3972 19.9948 41.8815 19.9323C42.9544 19.7968 44.1576 20.0677 45.1784 19.8958C45.6784 19.8177 46.0169 19.2812 46.5742 19.3281C47.2097 19.3802 47.1472 20.0104 47.4701 20.1979C48.1159 20.5833 49.3972 21.0521 50.1472 21.0208C50.9076 21.1093 49.418 22.6875 49.2149 22.8229C48.5638 23.2343 47.6784 22.8281 46.9961 22.6823C46.8399 21.8229 47.6992 22.4323 47.5534 21.4375C47.3347 19.9843 46.2149 22.5833 46.1211 22.6406C45.7253 22.8958 44.5794 22.3333 44.5013 22.9583C50.0847 24.401 56.3919 24.7135 62.1315 24.0677C63.4076 23.9271 68.7617 23.1041 69.3555 22.1302C70.3034 20.5833 67.9128 19.6198 66.7149 19.625C67.7357 19.0416 68.043 17.9271 68.6784 17.2864C69.4076 16.5416 70.5794 16.4739 70.8294 14.9739C71.0794 13.4635 69.7617 13.25 69.7513 13.0833C69.7097 12.4271 71.3919 10.6666 69.4232 9.83851C67.7305 9.13018 66.6419 10.1458 65.7461 10.0625C65.4701 10.0416 65.0899 9.62497 64.3607 9.59372C63.069 9.53643 61.5378 10.2916 60.7201 11.276C60.4128 11.6458 60.3555 12.2916 60.2826 12.3541C60.069 12.5416 58.9857 12.25 58.3867 12.8229C57.4544 13.7135 58.043 18.1562 58.6992 19.1718C59.2097 19.9583 59.819 20.1666 60.7409 20.2083C63.0274 20.3073 66.0326 19.4323 68.0326 20.9323C68.2774 21.1146 68.5274 20.9323 68.3763 21.5625C66.418 22.1666 64.4024 22.6406 62.3711 22.9166C58.9232 23.3854 54.1628 23.6979 50.7409 23.2343C49.7305 23.0989 50.7409 22.5468 50.9492 22.0521C51.1159 21.6666 51.0534 20.8802 51.3451 20.7239C52.1055 20.8125 52.9805 20.0364 53.5586 19.9843C54.0534 19.9427 55.8867 19.7239 56.0169 19.7291C56.4649 19.7604 57.6003 20.8698 58.3763 19.7656L56.4388 19.3437C57.4649 17.9635 57.8711 16.7708 57.2097 15.1041C57.069 14.75 56.5638 14.4739 56.5065 14.1771C56.2617 12.9218 57.3867 11.776 56.0065 9.92185C55.4232 9.14059 53.1003 7.96872 52.1211 7.94268C51.1836 7.92185 50.6836 8.51039 49.9128 8.53643C48.2461 8.59372 47.4857 7.72914 45.8867 9.34893C47.1211 8.78122 48.418 8.44789 49.7617 8.80726C50.0117 9.05726 49.2826 10.4479 50.3347 10.1771C49.6576 8.58851 52.2201 8.18226 53.3867 8.79164L52.8347 10.1771C53.1888 10.526 55.5482 8.71872 56.3138 11.5625C56.7878 13.3333 55.9076 13.4896 55.3347 14.901C58.319 14.7083 57.0482 19.3489 54.6263 19.375L53.8086 18.7916C53.2201 19.5781 51.7201 20.2448 50.7617 20.1666C50.1888 20.125 49.7982 19.6562 49.2826 19.4271C48.9649 19.2864 48.4649 19.4114 48.1211 19.1979C47.8242 19.0156 47.7565 18.3593 47.3972 18.276C47.1367 18.2083 46.4961 18.5625 46.0274 18.5364C44.0013 18.4427 44.3034 15.7812 45.0065 14.4271C45.3607 13.7396 46.1419 13.4583 46.1732 12.6823L44.8242 12.6406C44.1263 11.5573 45.1003 10.1458 45.8919 9.34893C44.1888 10.1302 43.0638 12.3437 45.0586 13.375C43.6992 14.7604 43.1628 16.6666 44.1419 18.4479C44.3867 18.8906 44.8242 18.6458 44.7826 19.0677C42.2513 19.6875 37.2826 19.6146 37.0065 22.9583C38.7617 23.1718 40.2357 22.1614 41.7253 21.4271L41.7149 21.4375ZM62.8763 19.8646C62.7253 19.776 62.6836 19.2135 62.4128 19.0833C61.8972 19.7864 60.4961 19.8437 59.7722 19.5C58.5378 18.9062 57.2357 11.8229 60.6159 13.4062C60.8034 11.2135 63.0117 9.86976 65.0482 10.4739C65.1107 10.5521 63.9649 11.8958 64.9128 12.1354C65.9961 12.4114 65.9597 11.1354 66.2305 10.8229C66.7513 10.2343 68.7357 10.4323 69.4649 10.7708C69.9857 12.6927 67.3347 12.3698 67.5482 13.8021L69.7878 13.9271C70.8086 15.8437 68.3399 17.0521 66.7149 17.1406C66.3659 18.1927 68.168 17.2708 67.8242 18.1041C67.4492 19.0052 63.4597 20.2187 62.8763 19.8646Z" fill="#424C14"/>
<path d="M62.7045 146.323C63.2305 146.354 63.5482 146.943 64.6263 146.87C66.7774 146.729 66.6211 145.297 67.3399 144.703C67.6159 144.474 68.7826 144.172 69.4649 143.63C70.9128 142.495 71.8086 141.062 70.6003 139.354C72.418 140.417 77.3295 139.417 77.7045 137.146C77.8711 136.156 77.1211 135.771 77.0482 135.265C76.9492 134.547 78.2774 133.729 76.9961 132.26C76.0274 131.156 74.7826 131.437 73.5795 131.234C72.392 131.031 72.543 130.323 70.8607 131.14C69.2097 131.948 66.9597 135.823 69.4909 136.568C68.5795 134.146 69.9284 131.661 72.543 131.573C71.5638 132.656 71.8763 134.156 73.3607 133.068C73.9492 132.635 73.5013 132.078 75.1107 132.484C76.8972 132.932 76.2201 134.479 75.0482 135.323C75.0534 135.833 78.3503 136.172 76.1628 138.114C74.2253 139.838 74.4961 137.708 72.819 138.239L73.1003 139.349C71.168 138.859 68.9024 138.167 70.8763 136.021C69.4232 135.854 69.4284 137.469 69.4857 138.515C68.3242 138.26 67.3451 137.896 66.1576 138.234C67.3659 136.724 68.4597 133.13 65.7201 132.698C62.9388 132.265 61.194 134.604 60.8763 137.125L58.3711 134.224C53.4545 131.547 49.8659 137.943 55.3242 140.323C51.5742 143.963 53.9284 147.37 58.6576 144.906C59.0586 147.489 61.2774 146.239 62.7045 146.323ZM55.1263 144.448C53.8347 143.948 55.0378 141.364 55.9492 140.943C56.5638 140.661 57.3555 140.927 57.8242 140.323C56.6836 139.396 55.0638 139.719 53.9284 138.667C51.418 136.349 54.8034 132.521 58.392 135.318C59.9545 136.536 60.1888 138.958 62.2722 138.239C61.1576 136.177 63.4128 132.89 65.6836 133.573C68.444 134.396 63.2201 138.943 63.9388 139.63C65.793 139.661 67.6211 138.75 69.3034 139.953C71.3295 141.401 67.5378 143.818 67.267 143.521L66.9909 142.687L66.9545 143.755L65.3242 144.078L66.7149 144.63C67.3659 145.245 63.1732 146.922 62.9649 144.911C62.3555 146.005 60.4492 146.073 59.7982 145.021C59.3867 144.349 59.7149 143.489 59.0742 142.963C58.8399 142.917 56.694 145.062 55.1263 144.448Z" fill="#424C14"/>
<path d="M76.2982 165.464C76.8555 165.078 77.267 164.089 77.5482 163.938C78.2513 163.542 79.7201 163.714 80.9701 162.917C83.2826 161.448 84.3503 158.12 81.4284 156.844C84.1315 154.25 83.4753 149.625 79.6055 148.818C79.0795 148.708 78.2513 148.948 77.8763 148.734C77.7618 148.672 77.319 147.672 76.6888 147.292C75.5222 146.589 74.1159 146.495 72.8086 146.698C71.7513 146.865 69.8763 147.943 69.3503 147.943C68.7565 147.943 68.194 147.292 67.6159 147.177C64.7565 146.615 61.0847 151.063 61.5013 153.865C61.668 155.01 63.418 157.714 64.6472 157.688C66.7149 157.646 63.6576 155.391 63.4284 155.005C61.6836 152.089 65.3555 147.526 67.8295 148.662C68.4493 148.948 68.0065 150.844 69.3451 150.464C69.8138 150.328 69.5534 149.089 70.6836 148.464C72.4128 147.51 74.944 147.292 76.5951 148.521L76.4388 150.188C77.4805 150.318 78.1576 149.568 79.2201 149.74C81.5065 150.115 82.3138 152.557 81.5013 154.557C81.0899 155.578 79.0586 156.573 78.9336 157.266C78.7878 158.083 80.3503 157.427 81.0222 157.656C84.4545 158.828 80.694 163.75 77.1836 162.958C77.043 162.927 76.4336 161.745 75.6055 162.13L76.1368 163.901C73.9701 165.76 68.5795 165.745 66.6055 163.49C66.0534 162.859 66.0065 161.995 65.3295 161.573C65.6003 166.271 73.0586 167.693 76.2982 165.464Z" fill="#424C14"/>
<path d="M74.1472 38.8438C73.7461 38.8803 73.1211 39.2084 72.8034 39.4792C72.2201 39.9792 72.2617 40.724 71.7149 41.0209L71.1576 26.0209L72.392 26.0261C73.1472 25.0574 71.9024 24.7865 71.7774 24.5782C71.5222 24.1563 71.8138 23.0938 71.7149 22.5469C71.7253 21.7292 71.3347 22.2761 71.2305 22.6251C70.0326 26.8542 70.9388 36.2344 71.168 40.8699C71.1992 41.5001 71.3034 42.3594 70.8815 42.8334C70.3972 43.3751 66.2149 44.9636 65.2617 45.2605C61.1784 46.5313 57.2669 46.8022 53.0013 46.5417L45.0534 44.4949C49.3867 47.3751 55.8086 47.8542 60.8815 47.4167C60.043 48.7605 57.5951 50.4844 56.7201 48.3803C56.1159 47.8959 56.0326 49.7032 57.1315 49.9219C58.5899 50.2136 59.1472 49.2292 59.9805 49.1147C60.543 49.0365 60.7826 49.5469 61.1836 49.5157C62.1055 49.4376 63.2305 48.0469 63.5586 47.9949C63.8867 47.948 64.2149 48.4688 64.642 48.5261C65.5222 48.6355 66.1732 47.8126 66.6315 47.7501C67.0482 47.6928 67.3451 48.1563 67.8503 48.1199C68.5222 48.073 69.1211 47.4428 69.7045 47.2084C70.5638 46.8542 71.4336 47.4063 72.0586 45.948C72.7878 44.2553 71.142 43.8438 71.1524 43.1094C71.1524 43.0261 72.1367 42.8282 71.7149 41.8594L72.2409 42.8074L73.1003 42.9688C73.3034 42.7657 72.2722 40.8855 73.6472 40.0469C74.4492 39.5522 74.1159 40.5313 74.668 40.7136C75.0274 40.8334 75.6367 40.3542 76.1732 40.8803L76.4284 42.0053C77.9649 41.4428 79.3451 42.9584 77.3295 43.4584C76.8503 43.5782 76.0274 43.2709 75.4701 43.2605C75.142 43.2553 74.4284 43.0313 74.4909 43.5209C76.2253 43.6511 77.6211 44.724 78.9284 45.7449C79.1107 44.6824 78.1576 44.5053 77.543 43.9376C78.3763 43.5782 78.9961 43.448 78.8867 42.3334C77.9597 41.5782 75.2097 38.7449 74.1472 38.8438ZM61.4388 48.5209L61.4492 47.1459L63.9336 46.5782C64.4492 47.0522 61.7253 48.4376 61.4388 48.5209ZM71.1784 44.1928C71.5899 44.7344 71.5742 45.6199 71.0378 46.0574C70.4753 46.5157 70.069 46.0157 69.6628 46.0938C69.2045 46.1824 68.5899 47.3126 67.8555 47.1094L67.1315 46.2865L64.7774 47.4063L64.4961 46.3126C66.1315 46.1407 68.918 44.0365 70.2513 43.8386C70.668 43.7813 70.918 43.8751 71.1784 44.1928Z" fill="#424C14"/>
<path d="M98.3659 160.573C99.5274 160.385 101.548 161.333 102.522 160.01C103.553 158.615 99.6159 157.271 98.6524 156.984C94.6941 155.818 89.5587 155.828 85.4649 156.297C84.4909 156.411 83.5066 156.661 82.543 156.854C82.6524 157.359 83.0899 157.37 83.5066 157.417C86.668 157.766 90.0274 156.891 93.2045 157.167L93.767 158.521L97.2618 160.458L89.767 163.099L77.8243 166.016C83.3659 165.583 89.0378 164.203 94.2774 162.333C95.4337 161.927 97.4076 160.724 98.3712 160.568L98.3659 160.573ZM96.142 158.661L94.2097 157.406C96.1576 157.479 98.7357 157.771 100.486 158.63C100.637 158.703 101.09 159.333 101.574 159.344C100.887 160.917 99.9962 159.344 99.8816 159.339C98.5899 159.302 97.5639 159.833 96.142 158.661Z" fill="#424C14"/>
<path d="M102.548 116.724C102.1 128.307 99.6003 145.568 102.397 156.578C102.564 157.25 102.632 158.219 103.366 158.515L102.246 145.333C101.72 136.318 102.83 127.354 103.106 118.39C103.132 117.469 103.225 113.083 102.809 112.687C102.652 112.536 102.22 112.489 102.319 113.036C102.559 114.323 102.6 115.427 102.548 116.729V116.724Z" fill="#424C14"/>
<path d="M70.8763 65.7395C71.0013 65.026 70.7722 65.2395 70.2774 65.1093C69.2669 64.8333 68.3347 65.0572 67.3919 64.6666L65.7409 66.578L65.4649 66.0208C64.5274 67.2291 63.5222 67.6093 61.9909 67.4114V66.302C61.7044 65.9583 60.7149 67.7343 59.5638 66.7864C58.9284 66.2603 59.6367 65.0416 59.7201 64.4166C59.7982 63.8385 59.3711 63.3176 59.7409 62.8176C60.1888 62.2135 61.8034 61.8176 62.5534 61.8541C62.6055 64.177 62.9649 62.6197 63.5065 62.1249C64.0482 61.6197 64.8242 61.828 65.0482 61.302C63.3347 61.7551 60.1836 61.203 58.9336 62.5468C58.5013 63.0155 58.3242 65.1822 58.3659 65.8801C58.4909 67.901 59.7357 67.3697 60.9492 67.7603C61.4649 67.927 61.7826 68.4843 62.4024 68.4947C63.6367 68.5208 64.5899 67.1822 65.2044 67.1197C65.944 67.0416 66.1732 67.8541 67.1159 67.9843C68.6211 68.1874 70.0847 67.3124 71.0169 67.4114C71.6576 67.4791 72.0378 68.4062 72.9909 68.5208C73.8138 68.6145 74.517 68.1822 75.3242 68.2499C74.944 70.5572 76.8086 70.3749 78.3919 69.5103C79.3347 68.9999 80.0065 67.802 78.9336 68.3853C77.9336 68.927 77.1263 69.5989 75.8919 69.0624C76.819 65.8697 73.4701 68.526 72.668 67.4218L72.8242 66.026C72.6055 65.8124 68.4961 67.828 66.8919 67.3749C66.7097 67.3228 66.3294 67.0572 66.5586 66.8489C67.5794 64.828 69.0117 65.0155 70.8815 65.7447L70.8763 65.7395Z" fill="#424C14"/>
<path d="M57.4701 9.71884C57.9128 10.0522 57.6003 10.6563 58.7982 10.7709C60.3763 10.922 60.6524 9.99488 61.7357 9.51571C62.3972 9.22405 63.0534 9.30217 63.8555 8.85946C66.7201 7.28134 64.4857 4.4428 64.7722 4.07821L65.8815 4.35426C66.0326 3.80217 65.8555 1.87509 65.0326 2.54176L64.7618 3.23967C62.5586 1.83863 60.444 1.87509 58.1836 3.18759C56.8555 3.96363 57.3503 4.37509 56.8347 5.16676C56.1993 6.14072 54.8086 7.07821 55.4701 8.51571C55.8763 9.41676 57.0013 9.36467 57.4701 9.71884ZM58.2253 6.3178L58.9336 5.73967C59.4232 5.01051 57.6628 5.05217 57.5482 4.91155C57.6888 4.34384 58.4597 3.44801 59.0638 3.5053C59.2149 3.52092 60.5638 5.90113 60.7409 3.23446C61.2826 2.65634 63.0065 2.94801 63.5378 3.5053C64.069 4.06259 63.8243 4.61988 64.0899 5.17717C64.4701 5.96884 65.694 6.43238 64.6159 7.67717C63.6472 8.80217 62.5378 8.18759 61.9753 8.39592C61.2253 8.67197 60.0326 10.5886 58.3815 9.91155V8.52613L56.6159 8.77613C55.4649 8.39072 56.4284 4.63551 58.2253 6.3178Z" fill="#424C14"/>
<path d="M61.4336 127.547C61.0378 127.828 61.444 128.76 60.1992 128.75C58.6576 128.734 58.0742 127.63 56.7201 127.406C56.5065 129.307 60.6471 130.307 61.7044 129.479C62.1419 129.135 62.0846 128.552 62.3503 128.318C62.6263 128.073 63.1732 128.193 63.668 127.552C64.6471 126.297 63.7096 125.76 63.7669 125.047C63.8034 124.583 64.6576 124.203 64.4857 122.849C64.3034 121.396 63.3138 121.698 62.9024 121.219C62.6888 120.969 62.7982 120.313 62.2774 120.042C60.7878 119.266 56.9961 121.578 57.6003 123.594C58.6524 124.635 58.3659 126.526 60.3242 125.88C60.0899 125.516 59.1003 125.328 59.2201 124.771C59.3763 124.036 60.8919 124.854 60.8763 124.214C60.8711 124.01 60.0169 123.365 59.6471 123.5L58.3867 124.349C57.3034 122.109 59.668 120.906 61.5378 120.484L62.0013 121.156C60.1576 122.583 62.6836 122.047 63.1003 122.255C65.0742 123.224 62.0586 124.755 61.9961 125.047L63.0846 126.182C63.069 127.521 61.9284 127.193 61.4336 127.547Z" fill="#424C14"/>
<path d="M82.9128 137.083C80.319 138.406 77.5065 140.62 75.3503 142.573C75.0378 142.854 74.6523 142.984 74.7669 143.521C75.069 143.802 77.5169 141.74 78.0898 141.422C81.0273 139.807 84.9128 139.125 87.2565 136.438C86.4076 135.068 84.0846 136.484 82.9128 137.083ZM80.8763 139.349C82.1784 138.063 84.1367 137.141 85.8763 136.578C84.5846 137.896 82.5846 138.688 80.8763 139.349Z" fill="#424C14"/>
<path d="M61.9024 57.6408L67.2669 61.021L65.0482 58.9376L66.4336 58.521L65.6211 58.2345L65.6003 57.1303L63.9388 57.4116L64.4961 55.6147L63.9232 55.2918L62.8294 55.4637L63.0899 54.4793L65.6003 53.2501C64.2253 52.5574 61.8867 54.396 62.2617 55.8283C62.3294 56.0991 63.5378 56.3231 63.1003 57.4116C62.5117 57.1043 59.0378 54.7241 58.9388 54.4897C58.6524 53.7918 60.0742 54.146 60.3294 54.0731V55.1876C60.8555 55.047 61.0534 54.5626 60.7513 54.0731C60.2253 53.0626 58.3451 53.6512 58.4128 54.4481L60.0482 56.297L57.2722 56.5783L61.9024 57.6408Z" fill="#424C14"/>
<path d="M42.8347 36.1614C42.9076 37.5885 43.267 41.6145 43.6784 42.8124C43.8347 43.2655 43.8815 43.6249 44.4961 43.5208L43.9388 30.0572L43.1159 24.0833C43.4493 28.078 42.6368 32.2187 42.8347 36.1614Z" fill="#424C14"/>
<path d="M83.9336 155.458C85.6419 155.672 85.7461 152.969 86.5065 152.203C87.1055 151.599 92.3294 149.271 90.5274 147.474C89.7826 146.734 88.1419 147.776 87.543 148.38C86.9024 149.031 83.569 155.109 83.9336 155.458ZM89.7617 147.964C90.0742 148.276 87.6003 150.766 87.2617 150.458C87.8659 149.438 88.6055 148.406 89.7617 147.964Z" fill="#424C14"/>
<path d="M57.8399 34.5261C57.8347 34.7084 58.5534 37.7032 58.642 37.849C59.2201 38.7865 60.0013 38.3542 60.7253 38.5417C61.2409 38.6772 61.5534 39.0626 62.1315 39.1042C62.8034 39.1511 65.9597 37.7084 65.6003 37.4167L64.1159 37.422C63.3555 38.7865 61.5013 39.1876 61.7149 37.1355C60.7982 37.1511 60.6992 38.4011 59.6888 37.7084C58.8451 37.1303 59.5222 36.1251 59.4336 35.6355C59.3503 35.1824 57.8972 34.3542 59.2878 33.0365C59.7201 32.6303 60.3763 32.9584 60.6159 32.8074C60.9284 32.6095 61.0378 31.8542 61.694 31.698L63.3867 32.1303L63.1055 31.5834L64.0482 31.6095L64.4961 32.6928L66.1576 32.1355L63.569 30.8074C61.7565 31.4792 57.9076 32.0313 57.8399 34.5261Z" fill="#424C14"/>
<path d="M43.1055 47.5782C43.9596 47.8178 44.4284 47.3282 44.8711 47.3907C45.0846 47.422 45.1836 47.9949 45.4909 48.2189C46.4076 48.8699 47.4232 48.0522 48.3867 47.9637C48.5951 51.2657 50.7617 49.1928 51.9076 49.1303C52.4596 49.0991 53.7826 50.6095 55.0482 49.6303C54.7878 49.0418 53.7513 49.5418 53.1055 49.2189C52.6784 49.0105 52.4492 48.047 52.1211 47.9689C51.7201 47.8751 48.9024 50.5157 49.2201 47.1355L46.3399 47.948L45.4753 46.0262C42.5638 48.8178 40.7669 43.9585 44.7774 45.1876C44.8867 44.6251 44.5169 44.5157 44.0951 44.3282C41.9336 43.3647 41.043 46.9897 43.1055 47.5782Z" fill="#424C14"/>
<path d="M46.0222 162.125C46.5795 160.781 47.2409 159.485 48.9545 160.037L49.0638 161.583C51.0691 162.75 49.1784 159.422 51.5743 159.38C53.6107 159.344 55.8243 163.073 56.5795 163.24C57.1836 163.37 57.3763 162.63 56.9232 162.193C56.6211 161.912 55.8086 161.787 55.3451 161.417C54.1784 160.474 53.2513 158.698 51.5847 158.776C50.7097 158.818 50.1472 159.505 49.5951 159.557C49.0118 159.615 48.4805 159.037 47.7513 159.125C46.9336 159.224 46.0795 160.328 45.7097 160.396C45.4076 160.448 45.0013 160.162 44.6524 160.198C43.2149 160.344 41.9597 161.735 42.2774 163.24C42.7409 163.115 42.6368 162.365 42.9753 161.86C43.5743 160.969 44.5534 160.604 45.6055 160.74C45.3034 161.365 45.1055 162 46.0222 162.125Z" fill="#424C14"/>
<path d="M77.6888 151.849C76.4023 150.839 73.6263 151.25 74.9076 152.958C75.5065 152.161 76.1992 151.812 77.1003 152.437C78.4648 153.38 76.5951 153.786 76.4544 154.255C76.194 155.125 78.2148 156.516 76.4388 158.661C75.8398 159.391 74.9857 159.073 75.043 159.906C76.3971 160.146 78.168 158.458 78.3607 157.25C78.5586 156.005 77.8138 154.88 77.8763 154.542C78.0273 153.687 79.5065 153.271 77.6888 151.849Z" fill="#424C14"/>
<path d="M46.1628 141.021C46.0013 142.323 46.7826 143.505 47.5586 144.484C48.2513 145.349 50.8659 147.807 51.8555 147.687C52.6159 146.802 50.1211 145.88 49.8399 145.401C49.668 145.104 49.7878 144.406 49.569 143.865C49.3034 143.229 46.9076 140.271 46.1628 141.021Z" fill="#424C14"/>
<path d="M39.4961 162.125C39.7566 161.87 36.2045 157.229 36.0118 156.302C35.6524 154.563 36.3763 153.031 35.2566 150.677C34.5326 149.141 32.7201 148.063 32.8972 150.25C33.0274 151.87 37.3138 160.458 38.5222 161.578C38.8243 161.859 39.0013 162.234 39.4961 162.13V162.125ZM35.6107 155.182C34.3763 153.807 33.5586 151.484 33.392 149.63C34.3086 148.604 35.918 154.542 35.6107 155.182Z" fill="#424C14"/>
<path d="M61.9909 70.7447C61.1732 70.8957 61.5013 70.0467 60.6263 69.7551C58.4024 69.0207 57.6836 70.4426 58.4232 72.3749C59.1836 72.1144 60.0899 72.9686 60.4649 72.9686C60.8555 72.9634 61.1471 72.453 61.569 72.4269C62.3659 72.3749 64.3086 73.5363 65.1211 71.7915C66.293 69.2499 62.2982 67.854 61.9909 70.7447ZM60.3294 72.1301L60.1628 71.5519L58.9388 71.854L58.9805 70.2342C60.2253 69.354 61.7149 71.3853 60.3294 72.1353V72.1301ZM62.2669 72.1301C62.4596 70.9634 62.3242 69.5519 63.9388 69.6301L63.944 70.4686L65.0482 70.1874C64.9805 72.2811 64.1055 72.4634 62.2721 72.1301H62.2669Z" fill="#424C14"/>
<path d="M78.6575 137.682C81.069 137.646 84.1315 127.203 80.3242 130.88C79.6471 131.531 77.8034 134.547 79.2096 135.182C79.0638 134.307 79.3763 133.776 79.7148 133.052C79.9232 132.609 81.3138 130.682 81.1523 131.984C80.8867 134.099 79.0534 135.672 78.6575 137.682Z" fill="#424C14"/>
<path d="M80.043 112.135C81.8347 114.901 84.9493 116.406 86.4284 119.495C86.1837 119.927 85.8034 119.401 85.5639 119.245C83.9753 118.208 81.7774 116.536 80.8712 114.911C80.3972 114.828 80.5639 115.609 80.6524 115.823C80.9857 116.62 84.8347 119.786 85.7149 120.208C86.1576 120.417 86.4753 120.552 86.9857 120.463C87.7514 119.698 84.1316 115.656 83.5274 114.896L80.043 112.13V112.135Z" fill="#424C14"/>
<path d="M69.4909 19.9167L75.1315 23.0209C76.0847 23.7605 77.3086 24.422 77.543 25.7449L74.069 22.9688C73.5169 22.8699 73.5534 23.1407 73.793 23.5261C74.2201 24.2292 77.6732 27.0053 78.3763 26.3022C78.1784 22.4636 72.668 20.7449 69.4909 19.9167Z" fill="#424C14"/>
<path d="M76.1419 117.005C78.0638 118.307 78.0221 114.417 78.22 113.781C78.4596 113.016 79.5482 112.531 79.4857 111.578C78.3138 111.964 77.7617 113.068 76.4544 113.401C75.8554 113.552 75.2461 113.536 74.6367 113.536L74.4857 112.688L73.6575 113.109C74.2721 114.839 75.6523 114.13 76.9857 113.797C77.3346 114.151 75.2252 116.385 76.1419 117.005Z" fill="#424C14"/>
<path d="M49.767 129.214C49.767 131.302 55.8243 129.885 56.9961 129.349C56.2409 127.563 49.7618 127.375 49.767 129.214ZM52.9805 129.641C52.2149 129.661 51.1472 129.854 50.6107 129.214C50.6107 128.516 54.4284 128.745 55.0482 129.078C54.8086 129.521 53.4284 129.625 52.9805 129.641Z" fill="#424C14"/>
<path d="M65.3294 155.865C65.5221 156.891 66.5898 157 66.6888 157.167C66.7721 157.318 66.4128 158.208 66.4076 158.656C66.4023 160.75 68.293 161.167 70.043 161.016L68.3138 160.187C67.1107 158.974 67.293 157.693 68.6523 156.713C68.0638 155.698 67.1003 156.583 66.1992 155.974L66.4336 153.24C65.4701 153.708 65.1419 154.88 65.3294 155.865Z" fill="#424C14"/>
<path d="M57.5534 150.463L56.4545 152.25L53.6628 152.406L54.2201 150.739L53.1107 150.604C53.319 150.146 54.2253 149.026 54.7878 149.469C55.2357 149.823 55.1003 151.427 56.1628 151.292C55.5638 146.318 50.3972 150.187 53.5847 153.203C55.4024 152.708 57.3451 153.495 57.819 151.141C57.8711 150.864 57.9857 150.385 57.5586 150.463H57.5534Z" fill="#424C14"/>
<path d="M67.2827 29.229C67.491 29.1613 69.4441 28.1717 69.517 28.0624C70.1264 27.1249 69.465 24.703 68.6577 24.203C68.5483 24.1353 66.2723 24.0832 66.0691 24.1197C65.6473 24.1926 65.5275 24.5259 65.3243 24.6353C66.267 24.2863 66.9389 25.1926 67.4025 25.203C67.59 25.203 67.4337 24.4374 67.9545 24.6405C68.7306 25.1249 68.5223 25.5155 68.3764 26.302L69.1993 26.3072C69.9962 27.1822 67.2827 28.5155 66.5795 28.802L66.4337 27.6926C66.241 27.5259 63.3348 29.427 63.9337 26.578C63.8139 27.0415 63.3816 27.5467 63.6941 28.2082C64.1681 28.5728 65.1681 28.3645 65.5327 28.5936C65.965 28.8645 65.6525 29.7603 67.2775 29.229H67.2827Z" fill="#424C14"/>
<path d="M65.3242 24.6355C64.9857 24.823 64.7409 24.6824 64.3554 25.1928C63.9648 25.7136 64.069 26.0782 63.9388 26.5782H64.7721C64.3034 26.0417 64.8815 24.8022 65.3242 24.6355Z" fill="#424C14"/>
<path d="M32.418 153.24L32.694 155.182C31.2565 154.057 29.4128 152.682 29.2253 150.74L30.6107 151.016C28.5794 149.047 28.2513 150.927 29.2721 152.771C30.4388 154.88 31.7773 155.12 33.543 156.286C33.9805 156.578 33.7565 157.432 34.7773 157.125L32.4128 153.24H32.418Z" fill="#424C14"/>
<path d="M26.7305 159.214C27.6837 160.443 29.2201 160.891 30.7462 160.734L34.7722 160.047L34.0587 159.062C32.043 159.406 29.8243 159.958 27.8347 159.344L28.1159 158.797L26.7305 159.214Z" fill="#424C14"/>
<path d="M62.8294 162.682C63.4857 162.797 63.8972 161.948 63.9076 161.443C63.9128 161.234 62.5794 158.271 62.3972 157.974C61.3972 156.385 58.6419 157.208 58.6628 159.073C59.4909 158.177 61.3242 157.057 61.7149 158.792C58.7461 159.51 62.444 160.104 62.9544 160.755C63.7149 161.724 62.7513 162.609 62.8294 162.682Z" fill="#424C14"/>
<path d="M69.2149 128.24C72.2097 127.135 75.6211 125.516 78.8294 125.219C79.3763 125.167 80.5638 124.854 80.319 125.734C78.4336 126.547 77.1524 126.729 75.1159 126.359C74.569 126.255 74.6159 126.688 74.7669 126.849C75.444 127.557 81.6003 127.219 80.8763 124.906C77.1472 124.635 73.3399 125.88 70.0482 127.547C69.7305 127.708 69.2826 127.807 69.2097 128.234L69.2149 128.24Z" fill="#424C14"/>
<path d="M96.1575 152.536C96.8398 152.26 99.5638 153.302 100.038 151.161C97.9596 149.656 94.8086 152.792 93.4388 154.271C93.2305 154.495 92.7565 154.802 93.1002 155.182C93.4961 155.625 95.7617 152.698 96.1575 152.536ZM98.9284 151.297C99.1836 151.495 97.5898 152.276 97.2617 152.125C97.3138 151.615 98.668 151.099 98.9284 151.297Z" fill="#424C14"/>
<path d="M25.6107 164.208C24.5742 165.078 21.9961 166.417 20.8972 165.182C20.6576 166.698 22.418 166.391 23.4128 166.172C24.1472 166.01 26.892 164.432 26.7253 163.662C25.1055 162.453 21.8086 163.151 21.1784 165.182C22.0638 164.469 22.6784 163.792 23.8763 163.583C24.3138 163.51 26.5274 163.438 25.6159 164.208H25.6107Z" fill="#424C14"/>
<path d="M73.6575 46.5832C74.0377 47.3228 75.4075 47.0832 76.1732 47.2603C78.0377 47.6822 79.7825 48.2082 81.4127 49.2343L83.3711 51.0207C83.5117 50.203 82.7982 49.6978 82.2669 49.2134C80.1107 47.2499 76.5117 46.479 73.6575 46.5832Z" fill="#424C14"/>
<path d="M99.2044 102.823L96.7044 105.182C97.7513 105.505 100.887 102.854 99.7305 102.162C96.9805 101.74 94.2565 104.526 93.9284 107.13H94.7617C93.9492 105.031 97.2461 102.615 99.2044 102.823Z" fill="#424C14"/>
<path d="M45.517 155.766L44.4962 156.573C45.8816 155.953 45.8295 157.328 47.392 157.12C47.8764 157.057 50.2982 155.552 50.4597 155.182C51.043 153.885 50.4597 151.5 48.6628 151.854C48.6993 152.38 49.3451 151.995 49.7566 152.562C50.142 153.088 50.0534 154.005 50.0534 154.63L48.9753 154.661C48.8295 156 47.9545 156.739 46.5795 156.604C45.8868 156.536 46.1472 155.713 45.517 155.766Z" fill="#424C14"/>
<path d="M74.2306 10.6251C74.6785 10.4896 77.8191 9.31777 76.9858 8.52611C76.3712 7.93756 71.0795 10.3126 71.1577 11.8594C72.1837 10.5157 73.0274 10.9896 74.2306 10.6251ZM76.1524 9.0834C75.9077 9.6459 74.767 9.89069 74.2149 9.91152C74.4597 9.34902 75.6004 9.10423 76.1524 9.0834Z" fill="#424C14"/>
<path d="M59.2149 149.349C58.8659 147.781 59.1784 147.057 60.8815 147.687L60.0482 148.38L60.8815 149.901L60.0482 150.458L61.418 150.156C61.3399 148 61.7774 146.125 58.7722 147.104C58.1263 147.615 58.1107 149.463 59.2149 149.349Z" fill="#424C14"/>
<path d="M85.043 114.349C88.8764 114.146 92.7409 113.734 96.4805 112.875C98.0639 112.516 100.303 112.182 101.428 111.021L95.9232 112.599L85.043 114.349Z" fill="#424C14"/>
<path d="M72.0586 17.6198C72.6367 17.3385 74.9648 17.1094 75.2877 16.5469C75.4857 16.1979 75.2929 15.6198 74.8659 15.4948C73.3659 15.0573 71.0586 17.4948 70.3294 18.6615C71.0325 19.599 71.3398 17.9688 72.0586 17.6198ZM74.7669 16.026C75.0221 16.224 73.4336 17.0052 73.1002 16.8542C73.1575 16.3438 74.5117 15.8281 74.7669 16.026Z" fill="#424C14"/>
<path d="M57.5482 158.516C57.9493 158.057 56.5951 155.995 55.0274 157.245C53.2722 158.651 54.9024 161.031 56.4389 159.208L55.0586 158.656C55.3972 158.01 55.6836 157.484 56.5378 157.667C56.8816 157.74 56.8243 158.729 57.5482 158.516Z" fill="#424C14"/>
<path d="M56.4544 29.7865C56.0117 29.7969 55.7982 29.3646 55.7461 29.3646C55.3399 29.3646 54.8711 30.4271 56.293 30.4219C58.2357 30.4167 59.668 28.5833 59.9701 28.5104C60.6524 28.3438 61.9024 29.2188 62.2669 28.5261C61.0274 28.3646 60.168 27.8958 58.8763 28.0365C58.4805 28.0729 57.1471 28.3386 56.9961 28.8021L59.2149 28.5261C59.6784 28.8646 56.7878 29.7761 56.4544 29.7865Z" fill="#424C14"/>
<path d="M67.2722 128.24C68.2045 128.401 68.4702 127.687 68.9389 127.13C68.6316 127.281 68.1993 127.26 67.965 127.687C67.4389 127.115 69.2462 125.266 69.767 125.745C69.7879 126.26 69.2618 126.745 68.9389 127.13C69.8868 126.656 70.4858 126.521 70.3243 125.187C68.1941 124.896 66.9806 126.12 67.2722 128.24Z" fill="#424C14"/>
<path d="M53.5118 126.589C54.7826 127.719 56.1211 126.068 53.9388 126.297L54.2878 124.412C54.9961 123.646 57.0326 125.537 56.9961 124.073C54.6263 123.089 53.0274 123.802 53.5118 126.583V126.589Z" fill="#424C14"/>
<path d="M43.668 9.35948C42.8243 9.11469 38.9753 9.69802 39.2253 10.8803C39.4753 12.0678 43.4649 10.4064 43.668 9.35948ZM42.8295 9.63552C42.3295 10.4584 40.9128 10.4897 40.0535 10.7449C40.5587 9.88031 41.9024 9.64593 42.8295 9.63552Z" fill="#424C14"/>
<path d="M58.3815 21.026C56.8399 20.901 54.8346 20.9583 55.0534 22.9687C55.8815 23.0312 57.2565 22.9375 57.2721 21.8594H55.8867C56.6471 21.4687 57.9649 21.8958 58.3815 21.026Z" fill="#424C14"/>
<path d="M61.4389 27.6876C61.4545 27.1199 61.5378 26.3803 61.0482 25.9949L59.2149 25.7449C58.9232 27.1095 60.3034 27.6095 61.4389 27.6876Z" fill="#424C14"/>
<path d="M68.7878 3.8074C67.8711 3.53657 66.3399 6.30219 66.1628 7.13553C66.9128 5.64074 70.3763 5.95324 68.7878 3.8074ZM68.6576 4.35949V4.77094C68.319 5.09907 68.0794 5.57303 67.5482 5.46365C67.793 4.98448 67.9857 4.2397 68.6576 4.35949Z" fill="#424C14"/>
<path d="M73.6627 123.797C74.1836 123.885 73.7929 123.255 73.9752 123.016C74.2096 122.714 76.7356 122.859 76.1523 121.021C74.2148 120.745 73.4492 122.016 73.6575 123.797H73.6627ZM75.1888 121.302H75.6002V121.849L74.4908 122.13L75.1888 121.302Z" fill="#424C14"/>
<mask id="mask0_2_4778" style="mask-type:luminance" maskUnits="userSpaceOnUse" x="52" y="0" width="3" height="6">
<path d="M52.2722 0H54.9388V5.72396H52.2722V0Z" fill="white"/>
</mask>
<g mask="url(#mask0_2_4778)">
<path d="M53.1054 2.547L53.5221 1.02096L54.2148 1.16679C54.0221 2.12512 53.6836 3.1095 53.5065 4.06783C53.4544 4.35429 53.1419 4.97408 53.6575 4.91158C53.9596 3.43241 55.2148 1.57304 54.0742 0.19283C53.3554 0.0417889 52.9544 1.49491 52.8502 2.02616C52.8086 2.24491 52.7304 3.00533 53.1054 2.547Z" fill="#424C14"/>
</g>
<path d="M50.8868 6.30194C50.5639 5.06235 47.8347 4.29152 47.5534 5.61444C47.3243 6.69777 50.3347 6.2134 50.8868 6.30194ZM49.4961 6.02069C48.9805 6.05194 48.2774 6.10402 48.1107 5.47381C48.6264 5.44256 49.3295 5.39048 49.4961 6.02069Z" fill="#424C14"/>
<path d="M64.4857 65.3282L63.3816 64.6303L64.2097 63.8022C61.3607 63.297 62.5691 66.823 64.4857 65.3282Z" fill="#424C14"/>
<path d="M76.991 19.3542C76.5483 19.7345 74.0378 18.9584 74.2149 20.1928C74.8972 20.3386 78.0743 19.6147 78.0951 18.9428L76.7097 18.5261L76.991 19.3542Z" fill="#424C14"/>
<path d="M56.1628 57.9687C56.9649 59.0885 58.8972 58.8593 60.1055 58.7187C60.4076 58.6823 61.4649 58.6406 61.4388 58.2448H57.1315C56.9649 58.2448 56.5638 57.7968 56.1628 57.9687Z" fill="#424C14"/>
<path d="M59.7722 172.401C58.6524 171.172 60.9024 169.365 61.1576 167.958C60.1628 168.667 57.6941 171.891 59.7722 172.401Z" fill="#424C14"/>
<path d="M62.1732 35.724L63.6575 35.4636L63.5377 34.6199C62.9075 33.7657 60.72 34.7136 62.1732 35.724Z" fill="#424C14"/>
<path d="M71.9753 156.729L73.3763 156.849L72.2721 155.604L73.1003 154.635C71.8294 154.484 71.2878 155.807 71.9753 156.729Z" fill="#424C14"/>
<path d="M51.6159 27.9115C52.168 28.0261 53.5743 27.2344 53.9336 26.7188C53.3763 25.9792 53.4805 26.5521 53.1159 26.7292C52.6003 26.9792 52.1107 27.4896 51.4441 27.4115L51.9961 26.5834C50.9441 26.5781 50.6055 27.6979 51.6159 27.9115Z" fill="#424C14"/>
<path d="M43.5065 152.948L43.6628 155.182C43.5899 154.651 44.4284 154.177 44.4701 153.896C44.5274 153.537 43.9544 153.26 43.9805 152.865C44.0065 152.469 44.6419 152.104 44.4961 151.573L43.5065 152.948Z" fill="#424C14"/>
<path d="M31.1732 167.682L34.7774 164.906C34.043 164.661 30.7045 167.198 31.1732 167.682Z" fill="#424C14"/>
<path d="M73.6263 136.265C74.5378 134.797 71.8607 134.51 72.267 136.151C72.4128 136.729 73.5118 136.453 73.6263 136.265Z" fill="#424C14"/>
<path d="M66.017 56.5729C66.5378 56.4532 66.5638 54.8907 65.4701 55.1927C64.7565 55.3854 64.9284 56.8334 66.017 56.5729Z" fill="#424C14"/>
<path d="M74.2149 62.4114L74.4909 63.7968L75.5951 63.1041L74.2149 62.4114Z" fill="#424C14"/>
<path d="M52.8242 6.57812L52.8294 3.9375L52.5534 2.96875C52.7201 3.67708 52.3347 4.42188 52.3347 5.05208C52.3347 5.29688 52.4336 6.58333 52.8294 6.57812H52.8242Z" fill="#424C14"/>
<path d="M33.293 167.865C32.5951 168.609 31.3867 169.141 30.6159 168.24C31.194 170.453 34.6107 167.828 34.2201 166.297C33.7097 166.568 33.7878 167.339 33.293 167.865Z" fill="#424C14"/>
<path d="M72.6941 52.4114H71.7149L71.8451 53.2499L72.8243 53.5208L72.6941 52.4114Z" fill="#424C14"/>
<path d="M66.9909 62.4167L66.0534 62.1667L65.6055 62.5522V62.9636L66.9909 62.6824V62.4167Z" fill="#424C14"/>
<path d="M73.6576 86.8488C73.5169 85.7811 75.4388 86.2186 75.043 84.9113C74.8346 84.6874 70.8138 87.3176 69.8971 86.0311C68.9232 84.6665 72.7044 83.9738 73.6524 84.6301C72.2513 83.0415 68.8138 83.9322 69.1315 86.2238C69.5534 87.1561 71.0846 87.1613 71.9857 87.1353C70.3294 88.8957 71.319 91.0728 73.3763 91.854C73.8503 91.3176 70.6732 88.953 72.5378 87.8228C73.8971 86.9999 75.5065 89.4842 75.8763 89.078C75.6003 87.4738 77.3034 86.7967 78.3451 87.8488L78.0951 88.7967C78.293 88.9738 82.1836 87.6613 81.9961 89.7603C81.8867 91.0207 80.4128 90.453 79.7617 91.1665L81.4284 91.578C81.0638 92.3697 80.194 92.4686 79.418 92.354C78.4284 92.2082 78.1003 91.3332 77.2617 91.4374C78.0899 92.5259 80.2096 93.5988 81.3034 92.427C81.444 92.2759 82.5534 89.9895 82.569 89.7707C82.694 87.7082 80.5221 88.0259 79.3867 87.6353C78.8815 87.4634 79.0951 86.6249 77.6732 86.5676C76.1992 86.5051 76.3451 87.078 75.2305 87.6509L73.6524 86.8488H73.6576Z" fill="#424C14"/>
<path d="M67.4024 86.5834C67.1576 86.2657 67.1836 85.0938 66.9545 84.948C66.3243 84.5365 64.8555 85.2188 64.3555 85.7396C64.1628 85.9428 62.6263 88.5469 62.5951 88.7188C62.3295 90.3178 63.8086 89.8907 64.4805 90.3386C64.7826 90.5469 64.8295 91.1251 65.2357 91.2657C65.5795 91.3907 67.9284 90.9948 68.3138 90.8178C69.2253 90.3959 69.767 88.6303 69.3451 87.6928C68.9284 86.7657 67.7097 86.9792 67.4024 86.5834ZM68.6055 89.1511C68.3138 90.5261 66.4909 90.1928 65.3243 90.7448L64.9128 89.0834C64.5326 89.4428 63.6263 89.9636 63.3972 89.1928C63.0482 88.0261 64.1836 88.1094 64.4336 87.4896C64.6784 86.8855 64.4388 85.8126 65.5222 85.5105C66.9336 85.1146 66.6472 86.6876 67.3451 87.3282C68.0066 87.9323 68.9545 87.4584 68.6003 89.1511H68.6055Z" fill="#424C14"/>
<path d="M80.3243 96.5729C80.767 97.1094 81.0951 95.6198 81.6003 95.526C81.9389 95.4635 82.6524 95.8125 83.2357 95.7656C84.3451 95.6875 87.5951 95.0937 88.2878 94.2708C90.1003 92.1302 86.017 92.7083 84.9233 92.9792C84.0326 93.2031 79.6264 95.7396 80.3243 96.5729ZM87.8191 92.9687C88.0639 93.9427 87.2462 93.9792 86.5014 94.2812C85.1576 94.8333 83.7045 95.0573 82.267 95.1823C82.6107 94.2135 87.6108 92.7448 87.8191 92.9687Z" fill="#424C14"/>
<path d="M66.3087 92.9739C65.6472 91.4739 61.7201 90.9843 61.7149 93.2448C62.4597 93.2291 62.7462 92.4896 63.543 92.4114C64.3607 92.3333 64.8607 92.8125 65.5899 92.9791L65.0691 94.4583C65.6368 95.1614 66.3868 95.5052 66.1472 96.5729L65.3243 96.5781L65.4805 98.2396L63.9337 99.3541C64.4805 99.4218 65.7514 99.0989 66.0847 98.7343C66.1784 98.6302 66.9128 96.276 66.9284 96.1146C66.9857 95.5104 66.293 95.0312 66.2357 94.4635C66.1889 93.9948 66.5899 93.625 66.3034 92.9739H66.3087Z" fill="#424C14"/>
<path d="M61.4493 98.3594C61.142 98.1198 58.2253 99.3385 60.0482 96.5833C58.9441 96.4948 59.1107 95.6146 59.7826 95.0573C61.3868 93.7344 63.1368 95.7031 63.3816 95.4635C64.2982 94.5625 59.1836 92.8698 58.668 95.6094C58.5639 96.1614 58.5691 98.0469 58.7982 98.5208C59.4024 99.7656 60.7774 99.0104 60.8711 99.0781C60.9909 99.1562 61.142 100.75 62.4493 100.948C62.6576 100.979 63.4545 100.859 63.3816 100.464C61.392 100.729 61.9441 98.7396 61.4493 98.3542V98.3594Z" fill="#424C14"/>
<path d="M53.3086 105.547C51.319 103.906 50.0326 106.859 52.293 108.641C52.7826 109.026 54.2461 109.526 54.418 109.708C54.6576 109.958 54.4648 110.667 55.0482 110.74C55.2096 109.526 54.1888 106.276 53.3034 105.547H53.3086ZM53.9388 108.797C53.1211 108.672 50.569 106.083 52.1419 105.745C52.8555 105.589 54.0273 108.13 53.9388 108.797Z" fill="#424C14"/>
<path d="M51.7357 86.4583C51.9805 85.3905 52.9597 83.9374 53.4388 82.8801C53.5326 82.677 54.0013 81.9791 53.3816 82.2655C52.2305 83.8645 51.0899 85.6301 51.1628 87.6874C51.7774 88.302 53.5378 86.3489 53.9336 85.8749C54.9805 84.6249 56.2566 82.578 56.7149 81.0208L52.1316 86.8541C51.7201 86.9114 51.6368 86.8853 51.7357 86.4583Z" fill="#424C14"/>
<path d="M67.8243 81.573C67.8763 81.1042 66.8659 81.2709 66.5638 81.2865C64.3034 81.3959 61.892 81.9011 59.6315 82.1303C59.3763 82.1563 56.3034 81.9532 57.2722 82.6876H62.4076L67.8243 81.573Z" fill="#424C14"/>
<path d="M70.642 108.484C72.4232 108.01 71.9232 109.594 72.7305 109.864C73.4962 110.12 74.9857 109.901 75.3243 109.078L72.8243 109.354L73.1003 107.411C72.2566 107.542 71.6628 108.568 70.8816 107.542L71.991 105.469C71.4389 104.943 69.7045 107.734 70.642 108.484Z" fill="#424C14"/>
<path d="M69.767 98.2396C70.6733 97.4062 67.6577 97.7812 67.5483 97.6875C67.4754 96.6146 69.0066 96.6302 69.6524 97.1146C70.0691 97.4219 70.2202 98.75 70.8712 97.8281C68.7618 93.7448 63.8868 99.0312 69.767 98.2396Z" fill="#424C14"/>
<path d="M70.4649 102.13C68.9337 100.688 67.4962 102.359 68.3816 104.073C69.4441 104.38 68.7045 102.646 68.9389 102.412C69.9753 102.078 69.9128 103.141 70.0482 103.24C70.3347 103.443 71.3451 102.958 70.4649 102.13Z" fill="#424C14"/>
<path d="M76.7097 89.9114C73.8607 89.7708 73.9024 92.8749 76.7097 92.1301L75.3191 90.8853L76.7097 90.7395V89.9114Z" fill="#424C14"/>
<path d="M74.7669 102.964C73.5846 100.745 77.4544 100.219 76.7096 102.406L77.5169 101.469C76.7565 100.542 75.3346 100.177 74.4752 101.146C73.9804 101.703 73.6054 103.052 74.7669 102.964Z" fill="#424C14"/>
<path d="M74.2513 81.7604C73.892 82.6979 75.3138 82.8073 75.8034 82.3386C76.9909 81.1927 74.8034 80.2969 74.2513 81.7604Z" fill="#424C14"/>
<path d="M77.0429 108.74C76.8867 108.646 76.7825 107.979 76.5742 107.969L75.8763 108.797C77.3086 109.328 78.7825 109.807 79.7669 108.245C79.0013 108.266 77.7513 109.167 77.0429 108.74Z" fill="#424C14"/>
<path d="M74.7722 105.042C75.0899 105.203 75.3087 105.667 75.3295 106.021L75.7618 105.453C75.1837 104.172 73.9962 104.188 72.8243 104.636C73.0795 105.229 74.1316 104.724 74.7722 105.047V105.042Z" fill="#424C14"/>
<path d="M64.2149 97.1354C61.767 95.8177 61.3503 97.6875 63.793 97.6979C64.3451 97.7031 64.2409 97.6614 64.2149 97.1354Z" fill="#424C14"/>
<path d="M72.8243 74.3541L72.2722 73.3854L73.3764 72.6927C71.4753 72.276 70.3816 74.4896 72.8243 74.3541Z" fill="#424C14"/>
<path d="M61.668 107.651C62.1055 107.083 60.569 106.193 60.5795 107.828C60.5899 109.786 63.1368 109.01 62.543 108.24C61.6888 108.766 60.3451 107.891 61.668 107.651Z" fill="#424C14"/>
<path d="M49.2201 14.0833V15.1927L51.1576 14.776C50.668 14.0625 50.0326 13.9948 49.2201 14.0833Z" fill="#424C14"/>
<path d="M63.2409 15.1926L64.2149 14.6353L63.9388 15.7446C66.6107 14.8071 63.2357 12.9321 63.2409 15.1926Z" fill="#424C14"/>
<path d="M61.4388 142.958C61.6159 142.068 61.0013 142.531 60.4753 142.406C59.3815 142.141 59.7149 141.531 60.4649 141.083L61.7149 141.573C62.2826 141.047 59.793 139.646 59.3347 141.271C58.8503 143 59.9544 143.51 61.4388 142.958Z" fill="#424C14"/>
<path d="M61.1576 7.41144L60.6055 6.58332L61.4388 6.02603C59.6263 5.85415 59.017 7.60936 61.1576 7.41144Z" fill="#424C14"/>
<path d="M66.7097 27.4115L66.991 26.0261L65.8868 26.4428C65.7774 27.0209 66.116 27.5053 66.7097 27.4115Z" fill="#424C14"/>
<path d="M66.0221 87.6876C65.2461 87.8751 65.4805 89.7813 66.7148 89.349C66.7982 88.9376 66.7773 87.5053 66.0221 87.6876Z" fill="#424C14"/>
</svg>
