<svg width="516" height="54" viewBox="0 0 516 54" fill="none" xmlns="http://www.w3.org/2000/svg">
<mask id="mask0_2_178" style="mask-type:luminance" maskUnits="userSpaceOnUse" x="0" y="0">
<path d="M0 0H515.734V53.9688H0V0Z" fill="white"/>
</mask>
<g mask="url(#mask0_2_178)">
<path d="M20.3229 0.942711C14.7031 2.43229 8.36979 6.76042 4.61979 11.7135C3.17708 13.6458 1.28646 17.5781 0.598958 20.151C0.088541 22.0625 0 22.8385 0 25.5938C0 28.0365 0.0885413 29.1458 0.375 30.2552C2.375 37.3854 8.94792 42.9167 18.3438 45.3385C22.4531 46.4011 25.0729 46.7135 30.625 46.849C38.6667 47.0261 45.5938 46.2708 53.5469 44.3594L56.7188 43.6042L58.8281 45.026C62.5625 47.5573 66.4479 49.2708 71.4219 50.5781C82.9948 53.599 96.9427 54.1563 112.13 52.2448C126.568 50.4011 140.849 46.7135 160.281 39.7865L165.813 37.8073L169.073 39.5833C177.646 44.1823 186.688 47.849 193.771 49.5781C199.01 50.8698 201.745 51.224 206.073 51.1979C210.693 51.1979 212.359 50.8698 215.448 49.3594C219.089 47.5573 221.286 44.3802 221.286 40.9167C221.286 39.6979 220.469 37.8542 219.646 37.1875C217.781 35.7448 215.469 35.6771 213.25 37.0313C211.516 38.0729 211.094 38.5833 211.073 39.6302C211.073 40.6302 211.87 41.3646 212.984 41.3646C214.448 41.3646 215.115 39.8281 214.182 38.6302L213.74 38.0729L214.49 37.7188C216.979 36.5417 219.802 38.5833 219.422 41.2969C218.979 44.5625 216.422 46.8698 212.073 47.9583C209.786 48.5156 204.698 48.4688 200.969 47.8229C195.281 46.8698 188.776 44.9167 182.578 42.3385C178.536 40.651 169.943 36.4323 170.141 36.2552C170.453 35.9635 181.49 32.0104 187.286 30.1042C196.281 27.1458 201.568 25.7917 208.182 24.7708C211.672 24.2396 212.651 24.1719 217.844 24.1927C223.708 24.1927 226.573 24.4635 230.125 25.2604C231.391 25.5469 232.083 25.8802 233.438 26.8594C238.589 30.5469 242.875 34.9896 245.719 39.5625C247.359 42.2292 249.427 47.0261 250.161 49.9583C250.427 51.0208 250.828 51.224 250.828 50.3125C250.828 49.4479 248.958 44.026 247.828 41.6302C245.698 37.099 242.208 32.6771 237.766 28.8802C236.411 27.75 235.37 26.7917 235.391 26.75C235.547 26.5729 240.078 28.4167 242.719 29.7031C245.807 31.2135 248.427 32.8802 250.938 34.9219C252.714 36.3646 255.932 39.6719 255.932 40.0521C255.932 40.1875 255.38 41.1198 254.714 42.1146C253.089 44.5625 252.292 46.3385 252.292 47.5781C252.271 48.4219 252.339 48.5781 252.734 48.6458C253.089 48.6927 253.625 48.0938 255.38 45.5833C256.578 43.8698 257.646 42.474 257.734 42.474C257.844 42.474 258.885 43.8281 260.063 45.4948C261.24 47.1354 262.328 48.5573 262.505 48.625C263.021 48.8229 263.531 48.224 263.417 47.5781C263.13 46.2031 262.24 44.3385 260.906 42.3594C260.13 41.1823 259.49 40.1198 259.49 40.0313C259.49 39.6979 263.552 35.6979 265.24 34.3646C267.417 32.6563 270.104 30.9896 272.724 29.7031C275.031 28.5938 279.922 26.6354 280.073 26.7708C280.12 26.8177 279.589 27.3281 278.875 27.901C277.167 29.3021 273.677 32.724 272.323 34.3229C270.594 36.4115 269.057 38.8073 267.792 41.4531C266.573 44.026 264.594 49.5573 264.594 50.4479C264.594 51.4427 265.104 50.7552 265.594 49.1146C267.792 41.5417 271.771 35.4792 278.078 30.0573C283.182 25.6615 283.896 25.3073 289.245 24.6146C299.552 23.2604 309.766 24.4167 322.781 28.3698C329.068 30.2813 344.792 35.7865 345.255 36.2292C345.458 36.4115 338.927 39.7188 334.818 41.5156C326.49 45.1615 318.297 47.5156 311.344 48.2708C305.682 48.8698 300.682 47.7604 298.198 45.3594C294.823 42.1146 295.646 37.3646 299.573 37.3646C300.307 37.3646 301.682 37.875 301.682 38.1615C301.682 38.2292 301.526 38.4323 301.349 38.6094C299.906 40.0729 301.75 42.026 303.661 41.0521C305.083 40.2969 304.703 38.6302 302.839 37.4063C301.24 36.3854 300.286 36.0313 299.083 36.0313C295.885 36.0521 293.667 39.0313 294.354 42.3594C295.198 46.4688 298.531 49.401 303.792 50.7344C306.594 51.4219 312.078 51.4219 316.229 50.7135C325.557 49.1354 336.354 45.1146 346.99 39.25L349.677 37.7865L356.161 40.0938C373.396 46.2708 387.698 50.0469 400.87 51.8906C407.333 52.8021 411.349 53.1302 417.391 53.2865C435.115 53.7083 449.417 50.5573 457.547 44.4271L458.724 43.5365L461.432 44.2292C465.229 45.1615 469.406 45.9375 472.917 46.3594C476.958 46.849 485.839 47.0469 489.24 46.7135C499.01 45.7604 506.203 42.7396 510.958 37.5885C514.021 34.276 515.333 31.1667 515.51 26.75C515.734 21.0417 514.156 16.1302 510.49 11.2708C507.115 6.76042 500.276 2.16146 495.125 0.942711C492.594 0.343752 489.458 0.343752 487.526 0.942711C484.375 1.91667 482.443 4.82813 483.818 6.58334C484.172 7.02605 484.464 7.16146 485.109 7.16146C486.042 7.16146 486.552 6.73959 486.797 5.76042C487.016 4.91667 487.839 4.33854 489.302 4.03125C492.016 3.47396 495.479 4.14063 498.943 5.91667C507.094 10.0677 512.292 17.7083 512.313 25.5938C512.313 29.2813 511.469 31.8542 509.359 34.4792C505.563 39.2083 499.609 42.1406 490.88 43.5156C487.281 44.0938 476.38 44.0729 471.917 43.4948C469.162 43.1406 461.188 41.7188 461.031 41.5417C460.99 41.4948 461.453 40.8281 462.052 40.0313C463.385 38.276 464.521 35.9635 465.188 33.6563C465.896 31.1927 465.896 26.7031 465.188 24.1927C463.474 18.1563 458.792 13.2031 451.26 9.49479C445.333 6.58334 440.401 5.14063 432.583 4.05209C416.104 1.73959 400.094 4.54167 385.432 12.2917L382.901 13.6458L379.214 12.8438C359.359 8.49479 342.417 7.625 324.448 10.0677C316.786 11.0938 306.859 13.4896 300.349 15.8906C296.49 17.3073 291.51 19.6406 288.115 21.6198C287.073 22.2188 285.984 22.6198 284.474 22.9271C281.698 23.5521 277.146 25.0365 274.036 26.3698C268.104 28.901 263.531 31.9479 259.552 36.0104L257.708 37.8958L256.443 36.474C251.068 30.5469 241.563 25.4375 231.391 23.0156C229.438 22.5521 228.438 22.1719 226.396 21.0417C219.068 17.0208 211.938 14.401 202.411 12.2031C195.969 10.7135 191.682 10.026 183.755 9.22396C178.911 8.73959 165.167 8.67188 160.214 9.11459C152.13 9.84896 143.755 11.1563 135.74 12.9583L132.677 13.6458L128.964 11.7552C117.505 5.96354 106.781 3.33854 94.474 3.31771C80.5052 3.31771 68.3125 6.31771 60.0729 11.8229C54.6094 15.4896 50.9896 20.375 50.0365 25.3958C49.6823 27.2604 49.6823 30.901 50.0365 32.5885C50.6563 35.4323 52.3906 39.0313 54.0104 40.7396C54.3229 41.0729 54.5208 41.4063 54.4531 41.474C54.276 41.6719 49.3021 42.651 46.1719 43.1146C41.4427 43.849 37.0885 44.0938 31.7604 43.9583C19.8542 43.6719 12.1042 40.9844 6.85938 35.3229C4.15104 32.3906 3.04167 29.1927 3.26563 24.8385C3.66146 16.9531 8.75 9.82292 16.8542 5.76042C19.5677 4.40625 21.4323 3.9375 24.0729 3.9375C26.0521 3.9375 26.5625 4.00521 27.4271 4.45313C28.2708 4.84896 28.4948 5.09375 28.7135 5.84896C29.0469 6.9375 29.9792 7.46875 31.0052 7.11459C32.7344 6.49479 32.3125 3.54167 30.25 2.05209C28.1146 0.500002 23.8542 0.0312524 20.3229 0.942711ZM95.9167 4.49479C104.203 4.91667 111.422 6.49479 119.307 9.625C122.703 10.9583 129.432 14.2917 129.188 14.4896C129.099 14.5781 128.323 14.8229 127.458 15.0469C124.969 15.6667 117.13 18.3073 112.911 19.9323C110.776 20.75 105.313 23.0156 100.76 24.9479C84.5938 31.8333 76.4636 35.0104 68.3802 37.651C63.25 39.3177 56.3438 41.1823 55.875 41.0313C55.3229 40.8281 53.7656 38.8073 52.7656 36.9219C49.8802 31.5677 50.2135 24.7292 53.6094 19.5104C59.2292 10.8906 72.0469 5.35938 88.2552 4.51563C90.0365 4.40625 91.5886 4.31771 91.6979 4.31771C91.8333 4.29688 93.7188 4.38542 95.9167 4.49479ZM430.161 4.73959C438.271 5.44792 445.286 7.31771 451.125 10.2708C455.104 12.2708 459.589 16.0885 461.719 19.3073C465.339 24.7292 465.672 31.724 462.563 37.276C461.656 38.9167 459.901 41.1406 459.5 41.1406C458.99 41.1406 451.036 38.9427 447.818 37.9219C440.177 35.4531 429.74 31.3438 412.729 24.0833C402.932 19.9063 395.385 17.1094 389.188 15.3802C387.786 15 386.542 14.5781 386.432 14.4688C386.188 14.2448 392.74 10.9792 396.182 9.625C407.464 5.18229 418.036 3.65104 430.161 4.73959ZM184.979 10.5781C196.901 11.7813 207.563 14.1771 216.026 17.5104C219.776 19 224.932 21.4167 225.177 21.8177C225.307 22.0417 225.24 22.0833 224.932 21.9531C224.109 21.6406 214.823 21.5313 211.958 21.7969C203.099 22.6615 194.505 24.8854 179.448 30.1667C176.135 31.3438 171.964 32.8125 170.161 33.4323L166.922 34.5885L166.057 34.1667C164.365 33.3646 158.573 29.8333 149.109 23.8177C143.802 20.4427 138.318 17 136.917 16.1563C134.63 14.8021 134.427 14.625 134.896 14.4427C135.807 14.1094 143.802 12.5365 147.557 11.9583C151.932 11.2917 158.505 10.5365 162.255 10.2708C166.63 9.97917 180.891 10.1563 184.979 10.5781ZM357.094 10.5781C364.51 11.3594 371.24 12.3802 377.505 13.7344C379.458 14.1563 381.078 14.5313 381.104 14.5573C381.146 14.5781 379.349 15.7083 377.125 17.0677C374.906 18.4219 369.844 21.5938 365.87 24.151C358.536 28.8385 352.719 32.4323 350.099 33.8542L348.656 34.6563L343.771 32.901C325.693 26.3698 315.984 23.526 307.568 22.2604C303.839 21.7083 296.286 21.4427 292.688 21.776C291.359 21.8854 290.203 21.9531 290.156 21.9063C290.047 21.7969 295.089 19.3073 297.464 18.3073C303.104 15.9323 309.281 14.1354 317.344 12.4896C322.427 11.4479 327.51 10.8021 335.552 10.1823C338.328 9.95834 353.943 10.2708 357.094 10.5781ZM133.964 17.1302C135.563 18.0885 139.938 20.974 143.714 23.5052C152.354 29.3698 158.479 33.4115 160.813 34.8125C161.813 35.4323 162.656 35.9896 162.656 36.0521C162.656 36.2552 149.844 40.6719 144.667 42.2708C130.255 46.6927 117.62 49.4896 104.693 51.0677C100.625 51.5573 85.7917 51.6458 82.0365 51.1771C73.9792 50.2031 67.849 48.6042 63.2969 46.3125C60.8281 45.0729 58.1875 43.3594 58.4323 43.1406C58.5208 43.0729 59.7656 42.6719 61.1615 42.2708C67.6719 40.4063 75.6667 37.2292 93.1406 29.5938C106.979 23.5521 109.469 22.5052 115.729 20.1771C120.417 18.4427 129.698 15.5104 130.807 15.401C130.964 15.3802 132.385 16.1771 133.964 17.1302ZM388.208 16.401C398.094 19.2188 403.49 21.3281 427.719 31.9219C436.115 35.5885 443.729 38.6979 448.083 40.2292C451.193 41.3177 456.255 42.9167 456.635 42.9167C457.411 42.9167 456.99 43.474 455.438 44.4948C449.859 48.1354 441.578 50.4896 431.271 51.3542C427.828 51.6458 417.391 51.6458 413.948 51.3542C398.823 50.0885 378.969 45.3802 359.141 38.3854C355.943 37.2552 353.167 36.276 352.984 36.2083C352.766 36.1406 353.141 35.8073 354.073 35.2344C354.854 34.7656 359.604 31.6146 364.625 28.2604C369.641 24.9063 374.927 21.375 376.37 20.4167C379.24 18.5104 384.302 15.3802 384.521 15.3802C384.609 15.3802 386.255 15.8229 388.208 16.401Z" fill="#424C14"/>
</g>
</svg>
