<svg viewBox="0 0 518 47" fill="none" xmlns="http://www.w3.org/2000/svg">
<mask id="mask0_2_3352" style="mask-type:luminance" maskUnits="userSpaceOnUse" x="0" y="0" width="518" height="47">
<path d="M517.333 0H0V46.6667H517.333V0Z" fill="white"/>
</mask>
<g mask="url(#mask0_2_3352)">
<mask id="mask1_2_3352" style="mask-type:luminance" maskUnits="userSpaceOnUse" x="0" y="0" width="244" height="45">
<path d="M0.135498 0.255249H243.906V44.2032H0.135498V0.255249Z" fill="white"/>
</mask>
<g mask="url(#mask1_2_3352)">
<path d="M173.068 24.1666C175.219 21.3177 176.167 18.0052 176.651 14.4271C177.052 11.5052 176.635 8.72914 175.287 6.35414C173.609 3.40622 171.109 2.41664 169.12 3.88539C167.115 5.36977 166.224 8.75518 167.037 12.4948C168.063 17.2135 169.99 21.0521 173.068 24.1666ZM171.818 26.2396C170.474 24.4323 169.234 23.0104 168.208 21.3281C166.307 18.2083 164.865 14.7187 164.724 10.4166C164.563 5.40102 166.094 2.03643 169.156 0.666641C172.057 -0.640651 175.385 1.26039 177.042 5.23956C178.995 9.92706 178.792 14.7864 177.339 19.5833C176.677 21.7708 175.708 23.776 174.807 26.0573C179.016 30.4479 183.776 32.8698 188.714 34.4896C197.797 37.4635 206.948 37.0521 216.109 35.125C222.99 33.6771 229.828 31.2604 236.849 32.8229C239.156 33.3333 241.396 34.4531 243.599 35.8281C234.807 32.7604 226.203 34.6614 217.557 36.9271C204.672 40.3073 191.912 40.1927 179.609 32.6823C177.484 31.3906 175.474 29.7031 173.307 28.1146C164.458 38.6562 153.698 41.2916 142.677 42.8906C131.604 44.5052 120.516 44.7448 109.422 43.6354C97.2969 42.4219 85.2449 40.1823 73.448 35.9375C61.9949 31.8229 50.6719 26.9219 39.2605 22.5677C31.5782 19.6354 23.7657 17.2656 15.7865 19.2604C12.4219 20.0989 9.10423 21.8958 5.9584 23.8906C3.26569 25.5937 1.7709 30.4114 2.49486 33.1979C3.23965 36.0833 6.10423 37.3281 9.48965 35.6458C11.7501 34.526 13.8282 32.6562 15.9636 31.0364C17.2292 30.0781 18.4376 28.9583 20.1147 28.5C19.849 29.3437 19.7344 30.4114 19.3021 30.9948C15.5886 35.9896 11.4584 39.7448 6.08861 39.3906C0.942773 39.0521 -1.36452 33.0833 1.16673 26.6406C2.44798 23.3802 4.35423 21.0833 6.75007 19.5416C13.8438 15 21.2657 14.5885 28.8074 16C40.4897 18.1823 51.6407 23.4062 62.8751 28.151C74.8334 33.2031 86.9688 37.0364 99.3699 39.2291C111.271 41.3333 123.182 41.6666 135.13 40.8906C143.578 40.3489 151.974 39.0416 160.115 35.4896C164.281 33.6718 168.167 31.0208 171.818 26.2396Z" fill="#424C14"/>
</g>
<mask id="mask2_2_3352" style="mask-type:luminance" maskUnits="userSpaceOnUse" x="272" y="0" width="244" height="45">
<path d="M272 0.255249H515.812V44.2032H272V0.255249Z" fill="white"/>
</mask>
<g mask="url(#mask2_2_3352)">
<path d="M342.458 24.6562C345.911 21.1875 347.844 17.5573 348.885 12.9948C349.859 8.71352 349 5.22394 346.687 3.7604C344.396 2.30727 341.26 3.9531 340.151 7.81248C339.516 10.0469 339.229 12.901 339.594 15.2083C340.083 18.3125 341.354 21.1614 342.458 24.6562ZM272.615 36.026C276.495 32.375 280.854 32.0364 285.141 32.4271C290.078 32.8802 294.984 34.0885 299.891 35.0989C311.203 37.4271 322.427 37.7135 333.323 31.8437C336.057 30.375 338.641 28.3177 340.927 26.776C339.729 22.0937 338.344 18.151 337.734 13.9844C336.849 7.87498 339.531 2.13019 343.422 0.609354C347.292 -0.906271 351.016 2.78644 351.333 8.5104C351.609 13.526 350.083 17.6146 347.891 21.2552C346.859 22.9583 345.646 24.4323 344.088 26.6041C346.479 28.7448 348.588 30.9375 350.88 32.6146C356.12 36.4583 361.859 37.9062 367.609 39.0885C380.109 41.651 392.698 41.901 405.26 40.776C417.812 39.6562 430.25 37.0416 442.417 32.2708C453.812 27.8073 465.177 23.1562 476.594 18.8177C483.359 16.2448 490.266 15.0104 497.297 15.3958C501.823 15.6406 506.088 17.3646 510.078 20.1354C513.203 22.2969 515.583 25.8281 515.802 31.2864C515.953 35.1771 514.479 38.0312 511.911 39.0573C506.776 41.1041 498.5 35.7448 496.167 28.0104C497.365 28.9166 498.557 29.8385 499.76 30.7187C502.094 32.4375 504.344 34.5 506.792 35.7344C509.958 37.3333 512.755 36.026 513.542 33.3021C514.323 30.5833 512.865 25.7135 510.151 23.9583C507.021 21.9375 503.708 20.1666 500.338 19.2604C493.463 17.4166 486.615 19.0312 479.948 21.4739C472.583 24.1666 465.349 27.5364 458.036 30.4687C442.766 36.5989 427.26 40.9271 411.437 43.0104C398.005 44.7812 384.62 44.5729 371.24 42.6719C364.609 41.7344 358.036 39.9687 351.911 36.0833C348.667 34.0208 345.693 31.0885 342.312 28.3177C337.042 33.0521 330.922 36.151 324.396 37.7239C317.141 39.4739 309.885 39.4375 302.63 37.8698C298.25 36.9271 293.911 35.5885 289.521 34.8125C283.854 33.8177 278.182 34.0312 272.615 36.026Z" fill="#424C14"/>
</g>
</g>
</svg>
